<svg width="365" height="143" viewBox="0 0 365 143" fill="none" xmlns="http://www.w3.org/2000/svg">
<line x1="4.32031" y1="13.5" x2="131.017" y2="13.5" stroke="#6F6F6F" stroke-width="7" stroke-linecap="round"/>
<line x1="147.859" y1="13.5" x2="274.556" y2="13.5" stroke="#6F6F6F" stroke-width="7" stroke-linecap="round"/>
<line x1="291.398" y1="13.5" x2="361.5" y2="13.5" stroke="#6F6F6F" stroke-width="7" stroke-linecap="round"/>
<line x1="3.5" y1="97.5" x2="185.972" y2="97.5" stroke="#6F6F6F" stroke-width="7" stroke-linecap="round"/>
<line x1="207.734" y1="97.5" x2="361.498" y2="97.5" stroke="#2B6CCE" stroke-width="7" stroke-linecap="round"/>
<line x1="3.5" y1="139.5" x2="236.826" y2="139.5" stroke="#6F6F6F" stroke-width="7" stroke-linecap="round"/>
<line x1="4.32031" y1="55.5" x2="140.86" y2="55.5" stroke="#6F6F6F" stroke-width="7" stroke-linecap="round"/>
<line x1="158.523" y1="55.5" x2="361.501" y2="55.5" stroke="#6F6F6F" stroke-width="7" stroke-linecap="round"/>
<rect x="31.168" width="99.2472" height="26" rx="5" fill="#A6F29A"/>
<path d="M319.32 130.43C318.449 129.183 317.578 127.001 315.836 124.194C314.965 122.635 312.352 119.517 311.481 118.27C310.9 117.022 310.9 116.399 311.191 115.152C311.481 113.281 313.223 111.722 315.256 111.722C316.707 111.722 318.159 112.969 319.32 113.904C319.901 114.528 320.772 115.775 321.353 116.399C321.933 117.022 321.933 117.334 322.514 117.958C323.095 118.893 323.385 119.517 323.095 118.27C322.804 116.711 322.514 114.216 321.933 111.722C321.643 109.851 321.353 109.539 321.062 108.292C320.772 106.733 320.482 105.797 320.191 104.238C319.901 103.303 319.611 100.808 319.32 99.5608C319.03 98.0017 319.03 95.1953 320.191 93.9481C321.062 93.0126 322.804 92.7008 323.966 93.3244C325.417 94.2599 326.289 96.4426 326.579 97.3781C327.16 98.9371 327.74 101.12 328.031 103.614C328.611 106.733 329.482 111.41 329.482 112.345C329.482 111.098 329.192 108.915 329.482 107.668C329.773 106.733 330.353 105.485 331.515 105.173C332.386 104.862 333.257 104.862 334.128 104.862C334.999 105.173 335.87 105.797 336.45 106.421C337.612 108.292 337.612 112.345 337.612 112.033C337.902 110.786 337.902 108.292 338.483 107.044C338.773 106.421 339.935 105.797 340.515 105.485C341.386 105.173 342.548 105.173 343.419 105.485C343.999 105.485 345.161 106.421 345.451 107.044C346.032 107.98 346.322 111.098 346.612 112.345C346.612 112.657 346.903 111.098 347.483 110.162C348.645 108.292 352.71 107.668 353 112.033C353 114.216 353 113.904 353 115.463C353 117.022 353 117.958 353 119.205C353 120.452 352.71 123.259 352.419 124.506C352.129 125.441 351.258 127.624 350.387 128.871C350.387 128.871 347.193 132.613 346.903 134.484C346.612 136.355 346.612 136.355 346.612 137.602C346.612 138.85 346.903 140.409 346.903 140.409C346.903 140.409 344.58 140.72 343.419 140.409C342.257 140.097 340.806 137.914 340.515 136.979C339.935 136.043 339.064 136.043 338.483 136.979C337.902 138.226 336.45 140.409 335.289 140.409C333.257 140.72 329.192 140.409 326.289 140.409C326.289 140.409 326.869 137.29 325.708 136.043C324.837 135.108 323.385 133.549 322.514 132.613L319.32 130.43Z" fill="white"/>
<path d="M319.32 130.43C318.449 129.183 317.578 127.001 315.836 124.194C314.965 122.635 312.352 119.517 311.481 118.27C310.9 117.022 310.9 116.399 311.191 115.152C311.481 113.281 313.223 111.722 315.256 111.722C316.707 111.722 318.159 112.969 319.32 113.904C319.901 114.528 320.772 115.775 321.353 116.399C321.933 117.022 321.933 117.334 322.514 117.958C323.095 118.893 323.385 119.517 323.095 118.27C322.804 116.711 322.514 114.216 321.933 111.722C321.643 109.851 321.353 109.539 321.062 108.292C320.772 106.733 320.482 105.797 320.191 104.238C319.901 103.303 319.611 100.808 319.32 99.5608C319.03 98.0017 319.03 95.1953 320.191 93.9481C321.062 93.0126 322.804 92.7008 323.966 93.3244C325.417 94.2599 326.289 96.4426 326.579 97.3781C327.16 98.9371 327.74 101.12 328.031 103.614C328.611 106.733 329.482 111.41 329.482 112.345C329.482 111.098 329.192 108.915 329.482 107.668C329.773 106.733 330.353 105.485 331.515 105.173C332.386 104.862 333.257 104.862 334.128 104.862C334.999 105.173 335.87 105.797 336.45 106.421C337.612 108.292 337.612 112.345 337.612 112.033C337.902 110.786 337.902 108.292 338.483 107.044C338.773 106.421 339.935 105.797 340.515 105.485C341.386 105.173 342.548 105.173 343.419 105.485C343.999 105.485 345.161 106.421 345.451 107.044C346.032 107.98 346.322 111.098 346.612 112.345C346.612 112.657 346.903 111.098 347.483 110.162C348.645 108.292 352.71 107.668 353 112.033C353 114.216 353 113.904 353 115.463C353 117.022 353 117.958 353 119.205C353 120.452 352.71 123.259 352.419 124.506C352.129 125.441 351.258 127.624 350.387 128.871C350.387 128.871 347.193 132.613 346.903 134.484C346.612 136.355 346.612 136.355 346.612 137.602C346.612 138.85 346.903 140.409 346.903 140.409C346.903 140.409 344.58 140.72 343.419 140.409C342.257 140.097 340.806 137.914 340.515 136.979C339.935 136.043 339.064 136.043 338.483 136.979C337.902 138.226 336.45 140.409 335.289 140.409C333.257 140.72 329.192 140.409 326.289 140.409C326.289 140.409 326.869 137.29 325.708 136.043C324.837 135.108 323.385 133.549 322.514 132.613L319.32 130.43Z" stroke="black" stroke-width="4.50615" stroke-linecap="round" stroke-linejoin="round"/>
<path d="M343.418 131.367V120.766" stroke="black" stroke-width="4.50615" stroke-linecap="round"/>
<path d="M337.615 131.367L337.324 120.766" stroke="black" stroke-width="4.50615" stroke-linecap="round"/>
<path d="M331.805 120.766V131.367" stroke="black" stroke-width="4.50615" stroke-linecap="round"/>
</svg>
