<svg width="22" height="22" viewBox="0 0 22 22" fill="none" xmlns="http://www.w3.org/2000/svg">
<path d="M19.75 0.5L2.25 0.5C1.78605 0.500579 1.34127 0.685139 1.0132 1.0132C0.685139 1.34127 0.500579 1.78605 0.5 2.25L0.5 19.75C0.500579 20.214 0.685139 20.6587 1.0132 20.9868C1.34127 21.3149 1.78605 21.4994 2.25 21.5L19.75 21.5C20.214 21.4994 20.6587 21.3149 20.9868 20.9868C21.3149 20.6587 21.4994 20.214 21.5 19.75L21.5 2.25C21.4994 1.78605 21.3149 1.34127 20.9868 1.0132C20.6587 0.685139 20.214 0.500579 19.75 0.5ZM2.25 19.75L19.75 2.25L19.75 19.75L2.25 19.75Z" fill="#919191"/>
</svg>