<svg width="28" height="28" viewBox="0 0 28 28" fill="none" xmlns="http://www.w3.org/2000/svg">
<path d="M26.249 14L19.249 21L18.0117 19.7628L23.7745 14L18.0117 8.23725L19.249 7L26.249 14Z" fill="#909090"/>
<path d="M14 19.25C13.8851 19.2502 13.7713 19.2276 13.6651 19.1836C13.559 19.1396 13.4625 19.075 13.3814 18.9937L9.00641 14.6187C8.92512 14.5374 8.86064 14.441 8.81664 14.3349C8.77265 14.2287 8.75 14.1149 8.75 14C8.75 13.8851 8.77265 13.7714 8.81664 13.6652C8.86064 13.5591 8.92512 13.4626 9.00641 13.3814L13.3814 9.00641C13.4626 8.92512 13.5591 8.86064 13.6652 8.81664C13.7713 8.77265 13.8851 8.75 14 8.75C14.1149 8.75 14.2287 8.77265 14.3349 8.81664C14.441 8.86064 14.5374 8.92512 14.6187 9.00641L18.9937 13.3814C19.0749 13.4626 19.1394 13.5591 19.1834 13.6652C19.2274 13.7714 19.2501 13.8851 19.2501 14C19.2501 14.1149 19.2274 14.2287 19.1834 14.3349C19.1394 14.441 19.0749 14.5374 18.9937 14.6187L14.6187 18.9937C14.5375 19.075 14.4411 19.1396 14.3349 19.1836C14.2288 19.2276 14.115 19.2502 14 19.25ZM10.8624 14L14 17.1377L17.1377 14L14 10.8624L10.8624 14Z" fill="#909090"/>
<path d="M1.75 14L8.75 7L9.98725 8.23725L4.2245 14L9.98725 19.7628L8.75 21L1.75 14Z" fill="#909090"/>
</svg>