<svg width="28" height="28" viewBox="0 0 28 28" fill="none" xmlns="http://www.w3.org/2000/svg">
<path d="M22.75 3.5H5.25C4.78603 3.50053 4.34122 3.68508 4.01315 4.01315C3.68508 4.34122 3.50053 4.78603 3.5 5.25V22.75C3.50053 23.214 3.68508 23.6588 4.01315 23.9868C4.34122 24.3149 4.78603 24.4995 5.25 24.5H22.75C23.214 24.4995 23.6588 24.3149 23.9868 23.9868C24.3149 23.6588 24.4995 23.214 24.5 22.75V5.25C24.4995 4.78603 24.3149 4.34122 23.9868 4.01315C23.6588 3.68508 23.214 3.50053 22.75 3.5ZM19.25 22.75V19.25H15.75V22.75H12.25V19.25H8.75V15.75H12.25V12.25H8.75V8.75H12.25V5.25H15.75V8.75H19.25V5.25H22.75V22.75H19.25Z" fill="#909090"/>
<path d="M15.75 8.75H12.25V12.25H15.75V8.75Z" fill="#909090"/>
<path d="M15.75 15.75H12.25V19.25H15.75V15.75Z" fill="#909090"/>
<path d="M19.25 12.25H15.75V15.75H19.25V12.25Z" fill="#909090"/>
</svg>