<svg width="28" height="24" viewBox="0 0 28 24" fill="none" xmlns="http://www.w3.org/2000/svg">
<path d="M27.0474 3.86392H23.0869C22.6039 1.64217 20.672 0 18.3536 0C16.0353 0 14.1033 1.64217 13.6203 3.86392H0V5.79588H13.6203C14.1033 8.01763 16.0353 9.65979 18.3536 9.65979C20.672 9.65979 22.6039 8.01763 23.0869 5.79588H27.0474V3.86392ZM18.3536 7.72784C16.7114 7.72784 15.4557 6.47206 15.4557 4.8299C15.4557 3.18773 16.7114 1.93196 18.3536 1.93196C19.9958 1.93196 21.2516 3.18773 21.2516 4.8299C21.2516 6.47206 19.9958 7.72784 18.3536 7.72784Z" fill="white"/>
<path d="M0 19.3193H3.96052C4.44351 21.5411 6.37547 23.1832 8.69382 23.1832C11.0122 23.1832 12.9441 21.5411 13.4271 19.3193H27.0474V17.3874H13.4271C12.9441 15.1656 11.0122 13.5234 8.69382 13.5234C6.37547 13.5234 4.44351 15.1656 3.96052 17.3874H0V19.3193ZM8.69382 15.4554C10.336 15.4554 11.5918 16.7112 11.5918 18.3533C11.5918 19.9955 10.336 21.2513 8.69382 21.2513C7.05165 21.2513 5.79588 19.9955 5.79588 18.3533C5.79588 16.7112 7.05165 15.4554 8.69382 15.4554Z" fill="white"/>
</svg>
