<svg width="267" height="64" viewBox="0 0 267 64" fill="none" xmlns="http://www.w3.org/2000/svg">
<rect x="0.5" y="0.5" width="259.977" height="59" rx="4.5" stroke="#6F6F6F"/>
<rect x="6.52344" y="4.5" width="259.977" height="59" rx="4.5" fill="#161616" stroke="#6F6F6F"/>
<path d="M71.3017 47.4182C69.3269 47.4182 67.6426 47.0465 66.2487 46.303C64.8547 45.5364 63.6699 44.4909 62.6941 43.1667L64.8547 41.3545C65.7143 42.4929 66.6668 43.3641 67.7123 43.9682C68.7577 44.549 69.9891 44.8394 71.4062 44.8394C73.1487 44.8394 74.4729 44.4212 75.379 43.5848C76.3082 42.7485 76.7729 41.6333 76.7729 40.2394C76.7729 39.0778 76.4244 38.1833 75.7274 37.5561C75.0305 36.9288 73.8805 36.4293 72.2774 36.0576L70.2911 35.6045C68.0608 35.0934 66.3532 34.3268 65.1683 33.3045C64.0067 32.2591 63.4259 30.7955 63.4259 28.9136C63.4259 27.8449 63.6234 26.8924 64.0183 26.0561C64.4133 25.2197 64.9593 24.5227 65.6562 23.9652C66.3764 23.4076 67.2244 22.9894 68.2002 22.7106C69.1992 22.4086 70.2911 22.2576 71.4759 22.2576C73.3113 22.2576 74.8795 22.5944 76.1805 23.2682C77.5047 23.9419 78.6199 24.9293 79.5259 26.2303L77.3305 27.8333C76.6567 26.904 75.8436 26.1722 74.8911 25.6379C73.9385 25.1035 72.7537 24.8364 71.3365 24.8364C69.78 24.8364 68.5487 25.1732 67.6426 25.847C66.7598 26.4975 66.3183 27.4848 66.3183 28.8091C66.3183 29.9707 66.6901 30.8535 67.4335 31.4576C68.2002 32.0384 69.3502 32.503 70.8835 32.8515L72.8699 33.3045C75.2628 33.8389 76.9936 34.652 78.0623 35.7439C79.131 36.8359 79.6653 38.2879 79.6653 40.1C79.6653 41.2152 79.4678 42.2258 79.0729 43.1318C78.7012 44.0379 78.1552 44.8045 77.435 45.4318C76.7148 46.0591 75.832 46.547 74.7865 46.8955C73.7643 47.2439 72.6027 47.4182 71.3017 47.4182ZM84.4415 29.0182H87.2293V31.9455H87.3687C87.8334 30.8071 88.5071 29.9707 89.3899 29.4364C90.296 28.8788 91.3763 28.6 92.6309 28.6C93.746 28.6 94.7566 28.8207 95.6627 29.2621C96.5687 29.7035 97.3354 30.3308 97.9627 31.1439C98.6132 31.9571 99.1011 32.9444 99.4263 34.1061C99.7748 35.2677 99.949 36.5687 99.949 38.0091C99.949 39.4495 99.7748 40.7505 99.4263 41.9121C99.1011 43.0737 98.6132 44.0611 97.9627 44.8742C97.3354 45.6874 96.5687 46.3146 95.6627 46.7561C94.7566 47.1975 93.746 47.4182 92.6309 47.4182C90.1915 47.4182 88.4374 46.303 87.3687 44.0727H87.2293V53.9697H84.4415V29.0182ZM91.8642 44.9091C93.444 44.9091 94.6869 44.4212 95.593 43.4455C96.499 42.4465 96.9521 41.1455 96.9521 39.5424V36.4758C96.9521 34.8727 96.499 33.5833 95.593 32.6076C94.6869 31.6086 93.444 31.1091 91.8642 31.1091C91.2369 31.1091 90.6329 31.202 90.0521 31.3879C89.4945 31.5505 89.0066 31.7828 88.5884 32.0848C88.1703 32.3869 87.8334 32.7586 87.5778 33.2C87.3455 33.6182 87.2293 34.0712 87.2293 34.5591V41.25C87.2293 41.8308 87.3455 42.3535 87.5778 42.8182C87.8334 43.2596 88.1703 43.6429 88.5884 43.9682C89.0066 44.2702 89.4945 44.5025 90.0521 44.6652C90.6329 44.8278 91.2369 44.9091 91.8642 44.9091ZM117.724 47C116.679 47 115.924 46.7212 115.459 46.1636C115.018 45.6061 114.739 44.9091 114.623 44.0727H114.449C114.054 45.1879 113.403 46.0242 112.497 46.5818C111.591 47.1394 110.511 47.4182 109.256 47.4182C107.351 47.4182 105.864 46.9303 104.796 45.9545C103.75 44.9788 103.228 43.6545 103.228 41.9818C103.228 40.2859 103.843 38.9848 105.074 38.0788C106.329 37.1727 108.269 36.7197 110.894 36.7197H114.449V34.9424C114.449 33.6646 114.1 32.6889 113.403 32.0152C112.706 31.3414 111.638 31.0045 110.197 31.0045C109.105 31.0045 108.188 31.2485 107.444 31.7364C106.724 32.2242 106.12 32.8747 105.632 33.6879L103.959 32.1197C104.447 31.1439 105.226 30.3192 106.294 29.6455C107.363 28.9485 108.71 28.6 110.337 28.6C112.52 28.6 114.216 29.1343 115.424 30.203C116.633 31.2717 117.237 32.7586 117.237 34.6636V44.5606H119.293V47H117.724ZM109.709 45.0485C110.406 45.0485 111.045 44.9672 111.626 44.8045C112.207 44.6419 112.706 44.4096 113.124 44.1076C113.543 43.8056 113.868 43.4571 114.1 43.0621C114.333 42.6672 114.449 42.2374 114.449 41.7727V38.8106H110.755C109.152 38.8106 107.979 39.0429 107.235 39.5076C106.515 39.9722 106.155 40.646 106.155 41.5288V42.2606C106.155 43.1434 106.468 43.8288 107.096 44.3167C107.746 44.8045 108.617 45.0485 109.709 45.0485ZM129.963 47.4182C128.708 47.4182 127.581 47.1975 126.582 46.7561C125.583 46.3146 124.735 45.6874 124.038 44.8742C123.365 44.0611 122.842 43.0737 122.47 41.9121C122.122 40.7505 121.947 39.4495 121.947 38.0091C121.947 36.5687 122.122 35.2677 122.47 34.1061C122.842 32.9444 123.365 31.9571 124.038 31.1439C124.735 30.3308 125.583 29.7035 126.582 29.2621C127.581 28.8207 128.708 28.6 129.963 28.6C131.751 28.6 133.18 28.9949 134.249 29.7848C135.341 30.5515 136.154 31.5621 136.688 32.8167L134.353 34.0015C134.028 33.0722 133.494 32.352 132.75 31.8409C132.007 31.3298 131.078 31.0742 129.963 31.0742C129.126 31.0742 128.394 31.2136 127.767 31.4924C127.14 31.748 126.617 32.1197 126.199 32.6076C125.781 33.0722 125.467 33.6414 125.258 34.3152C125.049 34.9657 124.944 35.6859 124.944 36.4758V39.5424C124.944 41.1222 125.363 42.4232 126.199 43.4455C127.059 44.4444 128.313 44.9439 129.963 44.9439C132.216 44.9439 133.842 43.8985 134.841 41.8076L136.863 43.1667C136.282 44.4677 135.411 45.5015 134.249 46.2682C133.111 47.0348 131.682 47.4182 129.963 47.4182ZM147.354 47.4182C146.123 47.4182 145.008 47.1975 144.009 46.7561C143.033 46.3146 142.185 45.6874 141.465 44.8742C140.768 44.0379 140.222 43.0505 139.827 41.9121C139.455 40.7505 139.27 39.4495 139.27 38.0091C139.27 36.5919 139.455 35.3025 139.827 34.1409C140.222 32.9793 140.768 31.9919 141.465 31.1788C142.185 30.3424 143.033 29.7035 144.009 29.2621C145.008 28.8207 146.123 28.6 147.354 28.6C148.562 28.6 149.643 28.8207 150.595 29.2621C151.548 29.7035 152.361 30.3192 153.035 31.1091C153.708 31.8758 154.22 32.7934 154.568 33.8621C154.94 34.9308 155.126 36.104 155.126 37.3818V38.7061H142.197V39.5424C142.197 40.3091 142.313 41.0293 142.545 41.703C142.801 42.3535 143.149 42.9227 143.591 43.4106C144.055 43.8985 144.613 44.2818 145.264 44.5606C145.937 44.8394 146.692 44.9788 147.529 44.9788C148.667 44.9788 149.654 44.7116 150.491 44.1773C151.35 43.6429 152.012 42.8763 152.477 41.8773L154.464 43.3061C153.883 44.5374 152.977 45.5364 151.745 46.303C150.514 47.0465 149.05 47.4182 147.354 47.4182ZM147.354 30.9348C146.588 30.9348 145.891 31.0742 145.264 31.353C144.636 31.6086 144.09 31.9803 143.626 32.4682C143.184 32.9561 142.836 33.5369 142.58 34.2106C142.325 34.8611 142.197 35.5813 142.197 36.3712V36.6152H152.129V36.2318C152.129 34.6288 151.687 33.351 150.804 32.3985C149.945 31.4227 148.795 30.9348 147.354 30.9348ZM159.72 21.2121H162.508V31.9455H162.647C163.112 30.8071 163.785 29.9707 164.668 29.4364C165.574 28.8788 166.654 28.6 167.909 28.6C169.024 28.6 170.035 28.8207 170.941 29.2621C171.847 29.7035 172.614 30.3308 173.241 31.1439C173.891 31.9571 174.379 32.9444 174.704 34.1061C175.053 35.2677 175.227 36.5687 175.227 38.0091C175.227 39.4495 175.053 40.7505 174.704 41.9121C174.379 43.0737 173.891 44.0611 173.241 44.8742C172.614 45.6874 171.847 46.3146 170.941 46.7561C170.035 47.1975 169.024 47.4182 167.909 47.4182C165.47 47.4182 163.716 46.303 162.647 44.0727H162.508V47H159.72V21.2121ZM167.142 44.9091C168.722 44.9091 169.965 44.4212 170.871 43.4455C171.777 42.4465 172.23 41.1455 172.23 39.5424V36.4758C172.23 34.8727 171.777 33.5833 170.871 32.6076C169.965 31.6086 168.722 31.1091 167.142 31.1091C166.515 31.1091 165.911 31.202 165.33 31.3879C164.773 31.5505 164.285 31.7828 163.867 32.0848C163.448 32.3869 163.112 32.7586 162.856 33.2C162.624 33.6182 162.508 34.0712 162.508 34.5591V41.25C162.508 41.8308 162.624 42.3535 162.856 42.8182C163.112 43.2596 163.448 43.6429 163.867 43.9682C164.285 44.2702 164.773 44.5025 165.33 44.6652C165.911 44.8278 166.515 44.9091 167.142 44.9091ZM193.003 47C191.957 47 191.202 46.7212 190.738 46.1636C190.296 45.6061 190.017 44.9091 189.901 44.0727H189.727C189.332 45.1879 188.681 46.0242 187.775 46.5818C186.869 47.1394 185.789 47.4182 184.534 47.4182C182.629 47.4182 181.143 46.9303 180.074 45.9545C179.028 44.9788 178.506 43.6545 178.506 41.9818C178.506 40.2859 179.121 38.9848 180.353 38.0788C181.607 37.1727 183.547 36.7197 186.172 36.7197H189.727V34.9424C189.727 33.6646 189.378 32.6889 188.681 32.0152C187.984 31.3414 186.916 31.0045 185.475 31.0045C184.383 31.0045 183.466 31.2485 182.722 31.7364C182.002 32.2242 181.398 32.8747 180.91 33.6879L179.238 32.1197C179.725 31.1439 180.504 30.3192 181.572 29.6455C182.641 28.9485 183.989 28.6 185.615 28.6C187.799 28.6 189.495 29.1343 190.703 30.203C191.911 31.2717 192.515 32.7586 192.515 34.6636V44.5606H194.571V47H193.003ZM184.988 45.0485C185.684 45.0485 186.323 44.9672 186.904 44.8045C187.485 44.6419 187.984 44.4096 188.403 44.1076C188.821 43.8056 189.146 43.4571 189.378 43.0621C189.611 42.6672 189.727 42.2374 189.727 41.7727V38.8106H186.033C184.43 38.8106 183.257 39.0429 182.513 39.5076C181.793 39.9722 181.433 40.646 181.433 41.5288V42.2606C181.433 43.1434 181.747 43.8288 182.374 44.3167C183.024 44.8045 183.896 45.0485 184.988 45.0485ZM198.55 47V29.0182H201.338V32.3288H201.512C201.837 31.4692 202.418 30.7025 203.254 30.0288C204.091 29.355 205.241 29.0182 206.704 29.0182H207.785V31.8061H206.147C204.637 31.8061 203.452 32.0965 202.592 32.6773C201.756 33.2348 201.338 33.9434 201.338 34.803V47H198.55Z" fill="white"/>
</svg>
