<svg width="24" height="24" viewBox="0 0 24 24" fill="none" xmlns="http://www.w3.org/2000/svg">
<path d="M22.4979 15.7501C22.4969 13.7461 21.9163 11.7851 20.8261 10.1035L19.7422 11.1875C20.564 12.5675 20.9978 14.1439 20.9979 15.7501L22.4979 15.7501Z" fill="#909090"/>
<path d="M21 7.8105L19.9394 6.75L13.5143 13.1752C13.057 12.8997 12.5338 12.7528 12 12.75C11.4067 12.75 10.8266 12.9259 10.3333 13.2556C9.83994 13.5852 9.45543 14.0538 9.22836 14.602C9.0013 15.1501 8.94189 15.7533 9.05765 16.3353C9.1734 16.9172 9.45912 17.4518 9.87868 17.8713C10.2982 18.2909 10.8328 18.5766 11.4147 18.6924C11.9967 18.8081 12.5999 18.7487 13.1481 18.5216C13.6962 18.2946 14.1648 17.9101 14.4944 17.4167C14.8241 16.9234 15 16.3433 15 15.75C14.9972 15.2162 14.8503 14.693 14.5748 14.2357L21 7.8105ZM12 17.25C11.7033 17.25 11.4133 17.162 11.1666 16.9972C10.92 16.8324 10.7277 16.5981 10.6142 16.324C10.5007 16.0499 10.4709 15.7483 10.5288 15.4574C10.5867 15.1664 10.7296 14.8991 10.9393 14.6893C11.1491 14.4796 11.4164 14.3367 11.7074 14.2788C11.9983 14.2209 12.2999 14.2506 12.574 14.3642C12.8481 14.4777 13.0824 14.67 13.2472 14.9166C13.412 15.1633 13.5 15.4533 13.5 15.75C13.4995 16.1477 13.3414 16.529 13.0602 16.8102C12.779 17.0914 12.3977 17.2495 12 17.25Z" fill="#909090"/>
<path d="M12 6.75002C13.6061 6.75077 15.1822 7.18457 16.5625 8.00574L17.6527 6.91554C16.0679 5.89651 14.2378 5.32343 12.3548 5.2566C10.4719 5.18976 8.60573 5.63164 6.95268 6.53575C5.29964 7.43986 3.92082 8.77277 2.96128 10.3943C2.00174 12.0158 1.49695 13.8659 1.50001 15.75L3.00001 15.75C3.00273 13.3639 3.95182 11.0763 5.63906 9.38906C7.32629 7.70182 9.6139 6.75274 12 6.75002Z" fill="#909090"/>
</svg>
