<svg width="442" height="77" viewBox="0 0 442 77" fill="none" xmlns="http://www.w3.org/2000/svg">
<rect y="71" width="64" height="268.075" rx="7.58491" transform="rotate(-90 0 71)" fill="#262626"/>
<path d="M159.213 51L159.213 46.2113L147.188 46.2113L147.188 43.6248L157.744 26.6023L162.009 26.6023L162.009 43.7995L165.644 43.7995L165.644 46.2113L162.009 46.2113L162.009 51L159.213 51ZM149.81 43.7995L159.213 43.7995L159.213 28.8743L159.073 28.8743L149.81 43.7995ZM185.729 51L169.44 51L169.44 47.994L177.585 40.6537C178.773 39.5818 179.752 38.4865 180.521 37.368C181.29 36.2262 181.674 35.0261 181.674 33.7678L181.674 33.3483C181.674 31.8803 181.29 30.7501 180.521 29.9578C179.752 29.1422 178.61 28.7344 177.095 28.7344C175.604 28.7344 174.45 29.1189 173.635 29.8879C172.842 30.6336 172.248 31.6356 171.852 32.8939L169.231 31.9152C169.464 31.1929 169.778 30.4938 170.174 29.818C170.594 29.1189 171.118 28.5014 171.747 27.9655C172.376 27.4295 173.134 26.9984 174.019 26.6722C174.928 26.3459 175.977 26.1828 177.165 26.1828C178.377 26.1828 179.449 26.3576 180.381 26.7071C181.336 27.0567 182.129 27.546 182.758 28.1752C183.41 28.8043 183.9 29.55 184.226 30.4122C184.575 31.2744 184.75 32.2182 184.75 33.2435C184.75 34.1756 184.61 35.0494 184.331 35.865C184.074 36.6806 183.701 37.4612 183.212 38.2069C182.746 38.9526 182.175 39.6866 181.499 40.409C180.847 41.1081 180.113 41.8072 179.297 42.5062L172.481 48.4484L185.729 48.4484L185.729 51ZM198.403 51.4194C196.912 51.4194 195.63 51.1398 194.558 50.5806C193.487 49.998 192.601 49.1708 191.902 48.0988C191.203 47.0269 190.69 45.7103 190.364 44.1491C190.038 42.5878 189.875 40.8051 189.875 38.8011C189.875 36.8204 190.038 35.0494 190.364 33.4882C190.69 31.9036 191.203 30.5753 191.902 29.5034C192.601 28.4315 193.487 27.6159 194.558 27.0567C195.63 26.4741 196.912 26.1828 198.403 26.1828C199.895 26.1828 201.176 26.4741 202.248 27.0567C203.32 27.6159 204.206 28.4315 204.905 29.5034C205.604 30.5753 206.116 31.9036 206.443 33.4882C206.769 35.0494 206.932 36.8204 206.932 38.8011C206.932 40.8051 206.769 42.5878 206.443 44.1491C206.116 45.7103 205.604 47.0269 204.905 48.0988C204.206 49.1708 203.32 49.998 202.248 50.5806C201.176 51.1398 199.895 51.4194 198.403 51.4194ZM198.403 48.8678C199.382 48.8678 200.221 48.6814 200.92 48.3086C201.619 47.9124 202.178 47.3648 202.598 46.6657C203.041 45.9667 203.367 45.1278 203.577 44.1491C203.786 43.1471 203.891 42.0285 203.891 40.7935L203.891 36.8088C203.891 35.597 203.786 34.4902 203.577 33.4882C203.367 32.4861 203.041 31.6356 202.598 30.9365C202.178 30.2375 201.619 29.7015 200.92 29.3287C200.221 28.9325 199.382 28.7344 198.403 28.7344C197.425 28.7344 196.586 28.9325 195.887 29.3287C195.188 29.7015 194.617 30.2375 194.174 30.9365C193.755 31.6356 193.44 32.4861 193.23 33.4882C193.02 34.4902 192.916 35.597 192.916 36.8088L192.916 40.7935C192.916 42.0285 193.02 43.1471 193.23 44.1491C193.44 45.1278 193.755 45.9667 194.174 46.6657C194.617 47.3648 195.188 47.9124 195.887 48.3086C196.586 48.6814 197.425 48.8678 198.403 48.8678ZM198.403 40.8634C197.588 40.8634 197.017 40.7003 196.691 40.3741C196.388 40.0478 196.236 39.6517 196.236 39.1856L196.236 38.4166C196.236 37.9506 196.388 37.5544 196.691 37.2282C197.017 36.902 197.588 36.7389 198.403 36.7389C199.219 36.7389 199.778 36.902 200.081 37.2282C200.407 37.5544 200.57 37.9506 200.57 38.4166L200.57 39.1856C200.57 39.6517 200.407 40.0478 200.081 40.3741C199.778 40.7003 199.219 40.8634 198.403 40.8634Z" fill="white"/>
<path d="M51.9814 28.5721H47.1988C46.6156 25.8892 44.2827 23.9062 41.4832 23.9062C38.6836 23.9062 36.3507 25.8892 35.7675 28.5721H19.3203V30.905H35.7675C36.3507 33.5879 38.6836 35.5709 41.4832 35.5709C44.2827 35.5709 46.6156 33.5879 47.1988 30.905H51.9814V28.5721ZM41.4832 33.238C39.5002 33.238 37.9838 31.7216 37.9838 29.7386C37.9838 27.7556 39.5002 26.2392 41.4832 26.2392C43.4662 26.2392 44.9826 27.7556 44.9826 29.7386C44.9826 31.7216 43.4662 33.238 41.4832 33.238Z" fill="white"/>
<path d="M19.3203 47.2371H24.1028C24.6861 49.9199 27.019 51.9029 29.8185 51.9029C32.618 51.9029 34.951 49.9199 35.5342 47.2371H51.9814V44.9041H35.5342C34.951 42.2213 32.618 40.2383 29.8185 40.2383C27.019 40.2383 24.6861 42.2213 24.1028 44.9041H19.3203V47.2371ZM29.8185 42.5712C31.8015 42.5712 33.3179 44.0876 33.3179 46.0706C33.3179 48.0536 31.8015 49.57 29.8185 49.57C27.8355 49.57 26.3191 48.0536 26.3191 46.0706C26.3191 44.0876 27.8355 42.5712 29.8185 42.5712Z" fill="white"/>
<line x1="69.6643" y1="22.6992" x2="69.6643" y2="57.6778" stroke="#545454" stroke-width="1.66447"/>
<path d="M237.284 23.9062L247.548 33.4395L246.111 34.7742L237.284 26.5756L228.457 34.7742L227.02 33.4395L237.284 23.9062Z" fill="white"/>
<path d="M237.283 57.7187L227.019 48.1855L228.456 46.8508L237.283 55.0494L246.11 46.8508L247.547 48.1855L237.283 57.7187Z" fill="white"/>
<path d="M125.589 44.4384C125.587 41.6723 124.786 38.9656 123.281 36.6445L121.785 38.1407C122.919 40.0456 123.518 42.2214 123.518 44.4384H125.589Z" fill="#6F6F6F"/>
<path d="M123.52 33.4833L122.056 32.0195L113.188 40.8881C112.557 40.5078 111.835 40.305 111.098 40.3012C110.279 40.3012 109.478 40.5441 108.797 40.9991C108.116 41.4541 107.586 42.1008 107.272 42.8574C106.959 43.6141 106.877 44.4466 107.037 45.2499C107.196 46.0531 107.591 46.7909 108.17 47.3701C108.749 47.9492 109.487 48.3435 110.29 48.5033C111.093 48.6631 111.926 48.5811 112.682 48.2677C113.439 47.9543 114.086 47.4235 114.541 46.7426C114.996 46.0616 115.239 45.261 115.239 44.442C115.235 43.7052 115.032 42.983 114.652 42.3519L123.52 33.4833ZM111.098 46.5125C110.688 46.5125 110.288 46.391 109.948 46.1635C109.607 45.936 109.342 45.6127 109.185 45.2344C109.028 44.856 108.987 44.4397 109.067 44.0381C109.147 43.6365 109.344 43.2676 109.634 42.978C109.923 42.6885 110.292 42.4913 110.694 42.4114C111.096 42.3315 111.512 42.3725 111.89 42.5292C112.269 42.6859 112.592 42.9513 112.819 43.2918C113.047 43.6323 113.168 44.0326 113.168 44.442C113.168 44.991 112.949 45.5172 112.561 45.9054C112.173 46.2935 111.647 46.5118 111.098 46.5125Z" fill="#6F6F6F"/>
<path d="M111.098 32.0158C113.315 32.0168 115.491 32.6156 117.396 33.749L118.901 32.2442C116.713 30.8377 114.187 30.0467 111.588 29.9544C108.989 29.8622 106.413 30.4721 104.132 31.72C101.85 32.9679 99.9469 34.8077 98.6224 37.0458C97.298 39.2839 96.6013 41.8376 96.6055 44.4383H98.6759C98.6797 41.1448 99.9897 37.9872 102.319 35.6584C104.647 33.3295 107.805 32.0195 111.098 32.0158Z" fill="#6F6F6F"/>
<rect x="301.5" y="8.5" width="59" height="59" rx="4.5" stroke="#6F6F6F"/>
<rect x="307.5" y="12.5" width="59" height="59" rx="4.5" fill="#161616" stroke="#6F6F6F"/>
<path d="M335.739 53.2221V43.8578H327.002V40.811H335.739V31.4468H339.144V40.811H347.881V43.8578H339.144V53.2221H335.739Z" fill="white"/>
<rect x="376.5" y="8.5" width="59" height="59" rx="4.5" stroke="#6F6F6F"/>
<rect x="382.5" y="12.5" width="59" height="59" rx="4.5" fill="#161616" stroke="#6F6F6F"/>
<path d="M404.103 45.48V40.3661H419.623V45.48H404.103Z" fill="white"/>
</svg>
