<svg width="28" height="28" viewBox="0 0 28 28" fill="none" xmlns="http://www.w3.org/2000/svg">
<path d="M16.593 10.3708H12.4449V6.22266H10.3708V10.3708H6.22266V12.4449H10.3708V16.593H12.4449V12.4449H16.593V10.3708Z" fill="white" fill-opacity="0.6"/>
<path d="M20.1682 18.6667C21.8791 16.6349 22.8166 14.0636 22.8148 11.4074C22.8148 9.15124 22.1458 6.94573 20.8923 5.0698C19.6389 3.19386 17.8573 1.73174 15.7728 0.868342C13.6884 0.00494269 11.3948 -0.220962 9.18194 0.219195C6.96912 0.659352 4.93651 1.7458 3.34116 3.34116C1.7458 4.93651 0.659352 6.96912 0.219195 9.18194C-0.220962 11.3948 0.00494269 13.6884 0.868342 15.7728C1.73174 17.8573 3.19386 19.6389 5.0698 20.8923C6.94573 22.1458 9.15124 22.8148 11.4074 22.8148C14.0636 22.8166 16.6349 21.8791 18.6667 20.1682L26.5335 28L28 26.5335L20.1682 18.6667ZM11.4074 20.7407C9.56145 20.7407 7.75695 20.1934 6.22209 19.1678C4.68723 18.1422 3.49095 16.6846 2.78454 14.9791C2.07812 13.2737 1.89329 11.3971 2.25342 9.58657C2.61354 7.77608 3.50246 6.11304 4.80775 4.80775C6.11304 3.50246 7.77608 2.61354 9.58657 2.25342C11.3971 1.89329 13.2737 2.07812 14.9791 2.78454C16.6846 3.49095 18.1422 4.68723 19.1678 6.22209C20.1934 7.75695 20.7407 9.56145 20.7407 11.4074C20.738 13.8819 19.7538 16.2543 18.004 18.004C16.2543 19.7538 13.8819 20.738 11.4074 20.7407Z" fill="white" fill-opacity="0.6"/>
</svg>
